<?xml version="1.0" encoding="utf-8"?>
<!-- Generator: Adobe Illustrator 16.0.3, SVG Export Plug-In . SVG Version: 6.00 Build 0)  -->
<!DOCTYPE svg PUBLIC "-//W3C//DTD SVG 1.1//EN" "http://www.w3.org/Graphics/SVG/1.1/DTD/svg11.dtd">
<svg version="1.1" id="Layer_1" xmlns="http://www.w3.org/2000/svg" xmlns:xlink="http://www.w3.org/1999/xlink" x="0px" y="0px"
	 width="62.225px" height="62.225px" viewBox="0 0 62.225 62.225" enable-background="new 0 0 62.225 62.225" xml:space="preserve">
<g>
	<g>
		<path fill-rule="evenodd" clip-rule="evenodd" fill="#CDAF70" d="M41.957,48.41c-0.976,0.045-1.934-0.131-2.869-0.381
			c-1.26-0.34-2.474-0.834-3.625-1.451c-0.754-0.397-1.492-0.834-2.224-1.277c-0.567-0.346-1.123-0.714-1.662-1.1
			c-1.282-0.919-2.53-1.883-3.704-2.933c-0.839-0.755-1.69-1.503-2.501-2.286c-1.004-0.975-1.985-1.974-2.938-2.994
			c-0.828-0.891-1.616-1.815-2.399-2.74c-0.5-0.596-0.987-1.202-1.435-1.837c-0.704-0.993-1.39-1.997-2.036-3.023
			c-0.635-1.01-1.174-2.07-1.64-3.176c-0.425-1.016-0.766-2.048-0.976-3.131c-0.142-0.714-0.192-1.446-0.147-2.178
			c0.051-0.879,0.278-1.713,0.754-2.467c0.295-0.454,0.669-0.834,1.101-1.163c0.726-0.567,1.463-1.123,2.212-1.662
			c0.392-0.278,0.777-0.573,1.248-0.72c0.38-0.125,0.766-0.142,1.151-0.114c0.573,0.045,1.106,0.238,1.554,0.602
			c0.306,0.25,0.59,0.544,0.874,0.828c0.419,0.419,0.833,0.845,1.259,1.271c0.692,0.692,1.401,1.378,2.076,2.087
			c0.369,0.386,0.567,0.874,0.669,1.401c0.113,0.601,0.102,1.197-0.176,1.752c-0.17,0.34-0.392,0.652-0.59,0.976
			c-0.352,0.579-0.721,1.14-0.976,1.764c-0.103,0.25-0.034,0.465,0.057,0.681c0.482,1.157,1.151,2.218,1.928,3.193
			c0.59,0.754,1.208,1.486,1.838,2.212c0.414,0.471,0.851,0.913,1.299,1.35c0.59,0.578,1.174,1.157,1.787,1.713
			c0.624,0.551,1.27,1.084,1.922,1.6c0.471,0.369,0.965,0.709,1.464,1.033c0.606,0.396,1.242,0.725,1.917,0.992
			c0.295,0.113,0.557,0.073,0.8-0.068c0.675-0.386,1.351-0.783,2.008-1.208c1.021-0.652,2.054-0.652,3.126-0.136
			c0.51,0.249,0.861,0.68,1.247,1.066c1.089,1.071,2.173,2.148,3.239,3.232c0.617,0.618,0.861,1.384,0.845,2.252
			c-0.017,0.652-0.289,1.202-0.663,1.719c-0.482,0.652-0.937,1.327-1.43,1.974c-0.42,0.55-0.868,1.089-1.452,1.497
			c-0.431,0.301-0.901,0.527-1.412,0.646c-0.493,0.119-1.01,0.17-1.515,0.256C41.963,48.443,41.957,48.426,41.957,48.41z
			 M37.442,39.493c-0.13-0.011-0.278,0-0.403-0.046c-0.459-0.158-0.93-0.3-1.372-0.498c-0.947-0.438-1.826-0.993-2.66-1.617
			c-0.703-0.521-1.396-1.072-2.053-1.656c-0.874-0.777-1.736-1.576-2.564-2.398c-0.664-0.664-1.282-1.367-1.906-2.071
			c-0.437-0.494-0.851-1.004-1.248-1.531c-0.34-0.437-0.646-0.908-0.964-1.361c-0.516-0.749-0.936-1.554-1.271-2.399
			c-0.153-0.369-0.295-0.743-0.289-1.151c0.005-0.505,0.17-0.97,0.369-1.424c0.363-0.822,0.851-1.571,1.35-2.303
			c0.261-0.386,0.119-0.908-0.13-1.157c-0.573-0.562-1.14-1.128-1.713-1.696c-0.675-0.675-1.355-1.355-2.036-2.03
			c-0.255-0.255-0.675-0.295-0.964-0.085c-0.681,0.482-1.361,0.947-2.025,1.446c-0.369,0.284-0.731,0.596-1.043,0.942
			c-0.431,0.476-0.533,1.095-0.562,1.718c-0.051,1.083,0.193,2.11,0.539,3.125c0.34,0.987,0.754,1.934,1.276,2.842
			c0.414,0.72,0.822,1.452,1.276,2.144c0.533,0.799,1.089,1.583,1.679,2.336c0.766,0.976,1.554,1.94,2.376,2.87
			c0.879,0.987,1.804,1.934,2.723,2.881c0.567,0.585,1.14,1.152,1.741,1.697c0.941,0.85,1.889,1.707,2.875,2.506
			c0.981,0.801,2.008,1.555,3.041,2.298c0.993,0.709,2.048,1.321,3.137,1.872c0.913,0.453,1.854,0.855,2.847,1.128
			c0.987,0.272,1.986,0.482,3.023,0.317c0.438-0.067,0.868-0.158,1.191-0.453c0.363-0.34,0.709-0.703,1.01-1.095
			c0.487-0.63,0.918-1.294,1.389-1.935c0.307-0.408,0.188-0.805-0.011-1.032c-0.216-0.249-0.46-0.471-0.692-0.703
			c-1.026-1.021-2.047-2.042-3.068-3.068c-0.307-0.312-0.742-0.352-1.117-0.13c-0.743,0.447-1.48,0.896-2.24,1.31
			C38.486,39.328,37.986,39.499,37.442,39.493z"/>
		<path fill-rule="evenodd" clip-rule="evenodd" fill="#CDAF70" d="M48.44,28.722c-0.006,0.862-0.063,1.719-0.301,2.558
			c-0.113,0.392-0.386,0.636-0.782,0.726c-0.414,0.097-0.777-0.006-1.061-0.334c-0.278-0.329-0.307-0.687-0.217-1.106
			c0.108-0.482,0.171-0.987,0.193-1.486c0.051-0.925-0.063-1.843-0.271-2.745c-0.222-0.993-0.579-1.94-1.062-2.836
			c-0.612-1.135-1.378-2.156-2.274-3.091c-0.84-0.879-1.758-1.651-2.779-2.303c-0.771-0.5-1.588-0.914-2.45-1.248
			c-1.05-0.408-2.127-0.687-3.244-0.822c-0.913-0.114-1.821-0.125-2.734-0.034c-0.199,0.017-0.409,0.034-0.602-0.006
			c-0.521-0.096-0.822-0.544-0.828-1.043c-0.005-0.505,0.329-0.941,0.828-1.038c0.38-0.074,0.766-0.13,1.152-0.13
			c0.749-0.006,1.509,0,2.257,0.074c0.636,0.063,1.266,0.199,1.889,0.346c0.573,0.13,1.135,0.3,1.686,0.488
			c0.867,0.289,1.695,0.68,2.49,1.14c1.077,0.619,2.086,1.333,2.977,2.195c0.335,0.317,0.692,0.612,0.993,0.947
			c0.481,0.533,0.952,1.078,1.378,1.645c0.363,0.482,0.687,0.993,0.981,1.521c0.307,0.556,0.579,1.14,0.834,1.724
			c0.289,0.687,0.493,1.401,0.652,2.133C48.338,26.89,48.445,27.797,48.44,28.722z"/>
		<path fill-rule="evenodd" clip-rule="evenodd" fill="#CDAF70" d="M32.706,19.868c1.271-0.011,2.495,0.267,3.659,0.766
			c1.32,0.562,2.455,1.396,3.432,2.439c0.72,0.771,1.32,1.623,1.752,2.581c0.34,0.754,0.572,1.542,0.664,2.371
			c0.057,0.522,0.102,1.044,0.022,1.565c-0.046,0.335-0.103,0.681-0.228,0.993c-0.152,0.392-0.612,0.596-1.061,0.55
			c-0.408-0.04-0.771-0.352-0.901-0.749c-0.073-0.227-0.052-0.437-0.012-0.664c0.119-0.59,0.091-1.18-0.022-1.77
			c-0.204-1.095-0.687-2.053-1.379-2.91c-0.674-0.828-1.469-1.526-2.404-2.053c-0.754-0.425-1.555-0.737-2.404-0.856
			c-0.517-0.074-1.045-0.068-1.572-0.063c-0.334,0-0.641-0.011-0.913-0.232c-0.295-0.238-0.42-0.55-0.397-0.919
			c0.034-0.419,0.221-0.777,0.635-0.907c0.363-0.108,0.749-0.125,1.118-0.188C32.701,19.839,32.701,19.856,32.706,19.868z"/>
	</g>
	
		<circle fill-rule="evenodd" clip-rule="evenodd" fill="none" stroke="#CDAF70" stroke-miterlimit="10" cx="31.112" cy="31.113" r="30.612"/>
</g>
</svg>
