<?xml version="1.0" encoding="utf-8"?>
<!-- Generator: Adobe Illustrator 16.0.3, SVG Export Plug-In . SVG Version: 6.00 Build 0)  -->
<!DOCTYPE svg PUBLIC "-//W3C//DTD SVG 1.1//EN" "http://www.w3.org/Graphics/SVG/1.1/DTD/svg11.dtd">
<svg version="1.1" id="Layer_1" xmlns="http://www.w3.org/2000/svg" xmlns:xlink="http://www.w3.org/1999/xlink" x="0px" y="0px"
	 width="61.224px" height="61.224px" viewBox="0.5 0.501 61.224 61.224" enable-background="new 0.5 0.501 61.224 61.224"
	 xml:space="preserve">
<g>
	<path fill="#CDAF70" d="M45.378,40.974c-1.026-1.021-2.047-2.042-3.068-3.067c-0.307-0.313-0.742-0.353-1.117-0.131
		c-0.742,0.447-1.479,0.896-2.239,1.311c-0.468,0.242-0.968,0.413-1.512,0.407c-0.13-0.012-0.277,0-0.402-0.046
		c-0.459-0.158-0.931-0.301-1.372-0.498c-0.947-0.438-1.826-0.993-2.66-1.617c-0.703-0.521-1.396-1.072-2.053-1.656
		c-0.874-0.777-1.736-1.576-2.564-2.398c-0.664-0.663-1.282-1.366-1.906-2.07c-0.437-0.494-0.851-1.004-1.248-1.531
		c-0.34-0.437-0.646-0.908-0.964-1.361c-0.516-0.749-0.936-1.554-1.271-2.398c-0.153-0.369-0.295-0.743-0.289-1.151
		c0.005-0.505,0.17-0.97,0.369-1.424c0.362-0.822,0.851-1.571,1.35-2.303c0.261-0.387,0.119-0.908-0.13-1.157
		c-0.573-0.563-1.14-1.128-1.713-1.696c-0.675-0.675-1.355-1.354-2.036-2.029c-0.255-0.256-0.675-0.296-0.964-0.086
		c-0.681,0.482-1.361,0.947-2.025,1.446c-0.369,0.284-0.73,0.596-1.043,0.942c-0.431,0.476-0.533,1.095-0.562,1.718
		c-0.051,1.083,0.192,2.11,0.539,3.125c0.34,0.987,0.754,1.934,1.275,2.842c0.414,0.72,0.822,1.452,1.276,2.145
		c0.533,0.799,1.089,1.583,1.679,2.336c0.767,0.976,1.555,1.939,2.376,2.87c0.879,0.986,1.805,1.934,2.724,2.881
		c0.566,0.585,1.14,1.151,1.74,1.696c0.941,0.851,1.89,1.707,2.875,2.507c0.981,0.801,2.009,1.555,3.041,2.298
		c0.993,0.709,2.049,1.32,3.138,1.872c0.913,0.453,1.854,0.854,2.847,1.128c0.987,0.271,1.986,0.481,3.023,0.316
		c0.438-0.066,0.867-0.157,1.19-0.452c0.363-0.341,0.709-0.703,1.01-1.096c0.487-0.63,0.918-1.294,1.39-1.935
		c0.307-0.408,0.188-0.806-0.012-1.032C45.854,41.428,45.61,41.206,45.378,40.974z"/>
	<path fill="#CDAF70" d="M31.112,0.501C14.205,0.501,0.5,14.206,0.5,31.113c0,16.907,13.705,30.612,30.611,30.612
		c16.907,0,30.612-13.705,30.612-30.612C61.724,14.206,48.019,0.501,31.112,0.501z M47.771,44.089
		c-0.481,0.652-0.937,1.327-1.43,1.974c-0.42,0.55-0.868,1.089-1.452,1.497c-0.431,0.301-0.901,0.527-1.412,0.646
		c-0.493,0.119-1.01,0.17-1.515,0.256c0.001-0.02-0.005-0.036-0.005-0.052c-0.977,0.045-1.935-0.132-2.869-0.382
		c-1.26-0.34-2.475-0.834-3.625-1.45c-0.754-0.397-1.492-0.834-2.225-1.277c-0.566-0.346-1.122-0.714-1.661-1.1
		c-1.282-0.919-2.53-1.884-3.704-2.934c-0.839-0.755-1.69-1.503-2.501-2.286c-1.004-0.975-1.985-1.974-2.938-2.994
		c-0.828-0.891-1.616-1.814-2.398-2.739c-0.5-0.597-0.987-1.202-1.436-1.837c-0.704-0.993-1.39-1.997-2.036-3.023
		c-0.635-1.01-1.174-2.07-1.64-3.176c-0.425-1.017-0.766-2.048-0.976-3.131c-0.143-0.714-0.192-1.446-0.147-2.179
		c0.051-0.879,0.278-1.713,0.754-2.467c0.295-0.454,0.669-0.834,1.101-1.163c0.727-0.566,1.464-1.123,2.213-1.662
		c0.392-0.277,0.776-0.572,1.248-0.72c0.38-0.125,0.766-0.142,1.15-0.114c0.573,0.046,1.106,0.238,1.554,0.603
		c0.307,0.25,0.591,0.544,0.874,0.828c0.419,0.419,0.833,0.845,1.26,1.271c0.691,0.692,1.4,1.378,2.075,2.087
		c0.369,0.387,0.567,0.874,0.67,1.401c0.112,0.601,0.102,1.197-0.177,1.752c-0.17,0.34-0.392,0.652-0.59,0.976
		c-0.352,0.579-0.721,1.141-0.976,1.765c-0.104,0.25-0.034,0.465,0.057,0.681c0.482,1.157,1.151,2.218,1.928,3.193
		c0.591,0.754,1.208,1.485,1.838,2.212c0.414,0.471,0.852,0.913,1.3,1.35c0.59,0.578,1.174,1.157,1.787,1.713
		c0.624,0.552,1.27,1.084,1.922,1.601c0.471,0.369,0.965,0.709,1.464,1.033c0.605,0.396,1.242,0.725,1.917,0.991
		c0.295,0.113,0.557,0.073,0.8-0.067c0.675-0.387,1.351-0.783,2.008-1.208c1.021-0.652,2.054-0.652,3.126-0.137
		c0.51,0.249,0.861,0.681,1.247,1.066c1.089,1.071,2.173,2.148,3.239,3.232c0.617,0.617,0.861,1.384,0.845,2.252
		C48.417,43.022,48.145,43.573,47.771,44.089z M40.011,27.95c-0.204-1.096-0.687-2.054-1.379-2.91
		c-0.674-0.828-1.469-1.526-2.404-2.054c-0.754-0.425-1.555-0.736-2.403-0.855c-0.518-0.074-1.046-0.068-1.572-0.063
		c-0.334,0-0.642-0.011-0.913-0.231c-0.295-0.238-0.42-0.55-0.397-0.919c0.034-0.419,0.222-0.777,0.636-0.907
		c0.362-0.108,0.749-0.125,1.117-0.188c0.007,0.017,0.007,0.033,0.012,0.046c1.271-0.012,2.495,0.267,3.659,0.766
		c1.319,0.562,2.454,1.396,3.432,2.439c0.72,0.771,1.32,1.622,1.752,2.58c0.34,0.755,0.572,1.542,0.664,2.371
		c0.057,0.522,0.102,1.044,0.021,1.565c-0.046,0.335-0.103,0.681-0.228,0.993c-0.152,0.392-0.612,0.596-1.062,0.55
		c-0.407-0.04-0.771-0.352-0.9-0.749c-0.073-0.227-0.052-0.437-0.012-0.664C40.152,29.13,40.124,28.54,40.011,27.95z M48.139,31.281
		c-0.113,0.392-0.386,0.636-0.782,0.726c-0.414,0.097-0.776-0.006-1.061-0.334c-0.278-0.329-0.308-0.688-0.217-1.106
		c0.107-0.481,0.171-0.986,0.192-1.485c0.051-0.925-0.063-1.844-0.271-2.745c-0.223-0.993-0.579-1.94-1.063-2.836
		c-0.611-1.135-1.378-2.156-2.273-3.091c-0.84-0.88-1.758-1.651-2.779-2.304c-0.771-0.5-1.588-0.914-2.45-1.248
		c-1.05-0.407-2.127-0.687-3.244-0.821c-0.913-0.114-1.82-0.125-2.733-0.034c-0.199,0.017-0.409,0.034-0.603-0.006
		c-0.521-0.097-0.821-0.544-0.828-1.043c-0.005-0.505,0.329-0.941,0.828-1.038c0.38-0.074,0.767-0.13,1.152-0.13
		c0.749-0.007,1.509,0,2.257,0.073c0.636,0.063,1.266,0.199,1.889,0.347c0.573,0.13,1.136,0.3,1.687,0.487
		c0.867,0.289,1.695,0.681,2.49,1.141c1.077,0.619,2.086,1.333,2.977,2.194c0.335,0.317,0.692,0.612,0.993,0.947
		c0.48,0.533,0.952,1.078,1.378,1.646c0.363,0.481,0.688,0.992,0.981,1.521c0.307,0.556,0.578,1.141,0.834,1.725
		c0.289,0.687,0.492,1.4,0.651,2.133c0.193,0.893,0.3,1.8,0.295,2.725C48.434,29.584,48.377,30.441,48.139,31.281z"/>
</g>
</svg>
