<?xml version="1.0" encoding="utf-8"?>
<!-- Generator: Adobe Illustrator 16.0.3, SVG Export Plug-In . SVG Version: 6.00 Build 0)  -->
<!DOCTYPE svg PUBLIC "-//W3C//DTD SVG 1.1//EN" "http://www.w3.org/Graphics/SVG/1.1/DTD/svg11.dtd">
<svg version="1.1" id="Layer_1" xmlns="http://www.w3.org/2000/svg" xmlns:xlink="http://www.w3.org/1999/xlink" x="0px" y="0px"
	 width="62.226px" height="62.225px" viewBox="0 0 62.226 62.225" enable-background="new 0 0 62.226 62.225" xml:space="preserve">
<g>
	
		<circle fill-rule="evenodd" clip-rule="evenodd" fill="none" stroke="#CDAF70" stroke-miterlimit="10" cx="31.113" cy="31.113" r="30.613"/>
	<g>
		<path fill="#CDAF70" d="M38.231,24.112l-1.075,9.114c-0.082,0.637-0.121,1.251-0.121,1.837c0,0.873,0.313,1.311,0.943,1.311
			c1.005,0,1.969-0.69,2.885-2.066c0.916-1.371,1.377-3.038,1.377-4.996c0-2.825-1.02-5.128-3.066-6.894
			c-2.039-1.766-4.507-2.648-7.413-2.648c-3.198,0-5.88,1.097-8.051,3.285c-2.171,2.188-3.258,4.892-3.258,8.099
			c0,3,1.02,5.599,3.065,7.809c2.035,2.216,4.902,3.317,8.594,3.317c2.868,0,5.796-0.768,8.779-2.309l1.151,2.66
			c-3.19,1.629-6.504,2.445-9.931,2.445c-4.553,0-8.165-1.371-10.842-4.118c-2.682-2.747-4.025-6.021-4.025-9.827
			c0-3.976,1.409-7.299,4.228-9.975c2.814-2.67,6.221-4.009,10.207-4.009c3.755,0,6.914,1.152,9.465,3.455
			c2.556,2.298,3.838,5.204,3.838,8.708c0,2.545-0.723,4.81-2.154,6.8c-1.438,1.985-3.181,2.978-5.242,2.978
			c-1.603,0-2.71-0.674-3.324-2.029c-1.118,1.404-2.489,2.111-4.102,2.111c-1.662,0-3.077-0.689-4.256-2.072
			c-1.185-1.383-1.771-3.203-1.771-5.457c0-2.319,0.659-4.211,1.99-5.665c1.334-1.453,2.918-2.183,4.756-2.183
			c1.771,0,3.049,0.565,3.833,1.684l0.152-1.365H38.231z M30.411,35.985c1.042,0,1.985-0.504,2.825-1.52
			c0.844-1.008,1.261-2.324,1.261-3.937c0-0.916-0.323-1.732-0.972-2.457c-0.641-0.724-1.436-1.086-2.374-1.086
			c-1.015,0-1.858,0.444-2.522,1.338c-0.663,0.895-0.998,2.051-0.998,3.472c0,1.211,0.258,2.215,0.778,3.005
			C28.92,35.59,29.589,35.985,30.411,35.985z"/>
	</g>
</g>
</svg>
