<?xml version="1.0" encoding="utf-8"?>
<!-- Generator: Adobe Illustrator 16.0.3, SVG Export Plug-In . SVG Version: 6.00 Build 0)  -->
<!DOCTYPE svg PUBLIC "-//W3C//DTD SVG 1.1//EN" "http://www.w3.org/Graphics/SVG/1.1/DTD/svg11.dtd">
<svg version="1.1" id="Layer_1" xmlns="http://www.w3.org/2000/svg" xmlns:xlink="http://www.w3.org/1999/xlink" x="0px" y="0px"
	 width="135.732px" height="135.723px" viewBox="0 0 135.732 135.723" enable-background="new 0 0 135.732 135.723"
	 xml:space="preserve">
<path fill-rule="evenodd" clip-rule="evenodd" fill="#FFFFFF" d="M10.275,39.533c-5.086-0.931-8.743-2.686-9.882-7.069
	c-1.53-5.889,1.585-10.006,6.133-13.198C2.542,12.109,2.35,8.586,5.684,5.389c3.217-3.084,7.208-2.776,13.507,1.178
	c2.786-3.873,6.24-6.838,11.448-6.547c4.482,0.25,7.049,2.994,8.97,9.765c31.855-0.058,63.82,0.059,96.123,0
	c-0.133,1.669-0.236,2.801-0.366,4.423c-1.034,0.024-2.234,0.078-3.435,0.078c-19.152,0-38.307,0.042-57.459-0.073
	c-2.44-0.014-3.988,0.764-5.563,2.563c-8.146,9.31-18.338,13.984-30.845,12.998c-1.695-0.134-3.369-0.588-5.04-0.954
	c-2.902-0.634-4.827,1.342-4.141,4.289c3.309,14.214-1.31,25.863-11.731,35.486c-1.959,1.809-2.946,3.45-2.923,6.252
	c0.154,18.96,0.07,37.924,0.111,56.886c0.002,1.216,0.412,2.433,0.694,3.989c-2.29-0.141-3.593-0.221-4.951-0.306
	C10.148,103.526,10.212,71.573,10.275,39.533z M34.859,24.299c8.134,3.438,23.899-1.303,29.55-9.733
	c-8.379-0.003-16.819-0.005-25.092-0.007C37.833,17.803,36.345,21.052,34.859,24.299z M14.931,39.119
	c-0.039,8.569-0.077,16.977-0.114,25.253c8.965-6.698,12.911-22.735,9.383-29.457C21.017,36.359,17.838,37.8,14.931,39.119z
	 M29.771,22.755c2.846-3.596,4.592-7.314,4.997-11.574c0.211-2.219-0.001-4.442-2.241-5.726c-2.432-1.394-4.757-0.905-6.915,0.672
	c-2.541,1.857-3.568,5.436-2.514,8.729C24.192,18.277,26.568,20.636,29.771,22.755z M23.013,29.566
	c-1.899-1.899-3.321-3.726-5.12-5.034c-3.524-2.565-7.567-2.543-10.579-0.114c-2.148,1.733-3.111,4.05-2.391,6.833
	c0.687,2.658,2.746,3.561,5.192,3.533C14.847,34.728,18.874,32.779,23.013,29.566z M20.202,20.044
	c-0.619-1.749-1.652-3.493-1.792-5.306c-0.309-3.999-3.16-5.393-6.158-6.621c-2.117-0.867-3.984,0.291-4.33,2.327
	c-0.395,2.323,2.743,7.032,5.023,7.62C15.376,18.69,17.792,19.384,20.202,20.044z"/>
</svg>
