<?xml version="1.0" encoding="utf-8"?>
<!-- Generator: Adobe Illustrator 16.0.3, SVG Export Plug-In . SVG Version: 6.00 Build 0)  -->
<!DOCTYPE svg PUBLIC "-//W3C//DTD SVG 1.1//EN" "http://www.w3.org/Graphics/SVG/1.1/DTD/svg11.dtd">
<svg version="1.1" id="Layer_1" xmlns="http://www.w3.org/2000/svg" xmlns:xlink="http://www.w3.org/1999/xlink" x="0px" y="0px"
	 width="135.732px" height="135.723px" viewBox="0 0 135.732 135.723" enable-background="new 0 0 135.732 135.723"
	 xml:space="preserve">
<path fill="#FFFFFF" d="M125.458,39.533c5.086-0.932,8.743-2.687,9.882-7.069c1.53-5.889-1.585-10.006-6.133-13.198
	c3.984-7.157,4.176-10.68,0.842-13.877c-3.217-3.084-7.208-2.776-13.507,1.178c-2.786-3.873-6.24-6.838-11.448-6.547
	c-4.481,0.25-7.049,2.994-8.97,9.766C64.269,9.727,32.303,9.844,0,9.785c0.133,1.669,0.236,2.801,0.366,4.423
	c1.034,0.023,2.234,0.078,3.435,0.078c19.152,0,38.308,0.042,57.459-0.073c2.44-0.014,3.988,0.764,5.563,2.563
	c8.146,9.311,18.338,13.984,30.845,12.998c1.695-0.134,3.369-0.588,5.04-0.954c2.902-0.634,4.827,1.343,4.142,4.289
	c-3.31,14.215,1.31,25.863,11.73,35.486c1.959,1.809,2.946,3.45,2.923,6.252c-0.153,18.96-0.069,37.924-0.11,56.886
	c-0.002,1.217-0.412,2.434-0.694,3.989c2.29-0.141,3.593-0.221,4.951-0.306C125.585,103.526,125.521,71.573,125.458,39.533z
	 M100.874,24.299c-8.134,3.438-23.898-1.303-29.55-9.733c8.379-0.003,16.819-0.005,25.092-0.007
	C97.9,17.803,99.387,21.052,100.874,24.299z M120.802,39.119c0.039,8.568,0.077,16.977,0.114,25.253
	c-8.965-6.698-12.911-22.735-9.383-29.457C114.716,36.359,117.895,37.8,120.802,39.119z M105.962,22.755
	c-2.846-3.596-4.592-7.314-4.997-11.574c-0.211-2.219,0.001-4.441,2.241-5.726c2.432-1.395,4.757-0.905,6.915,0.672
	c2.541,1.856,3.568,5.436,2.514,8.729C111.541,18.277,109.165,20.636,105.962,22.755z M112.719,29.566
	c1.899-1.898,3.321-3.726,5.12-5.033c3.524-2.565,7.567-2.543,10.579-0.114c2.148,1.732,3.111,4.05,2.392,6.833
	c-0.688,2.658-2.746,3.561-5.192,3.533C120.885,34.728,116.859,32.779,112.719,29.566z M115.531,20.044
	c0.619-1.749,1.652-3.493,1.792-5.307c0.309-3.998,3.16-5.393,6.158-6.62c2.117-0.867,3.983,0.291,4.33,2.326
	c0.395,2.323-2.743,7.032-5.023,7.62C120.357,18.69,117.941,19.384,115.531,20.044z"/>
</svg>
