<?xml version="1.0" encoding="utf-8"?>
<!-- Generator: Adobe Illustrator 16.0.3, SVG Export Plug-In . SVG Version: 6.00 Build 0)  -->
<!DOCTYPE svg PUBLIC "-//W3C//DTD SVG 1.1//EN" "http://www.w3.org/Graphics/SVG/1.1/DTD/svg11.dtd">
<svg version="1.1" id="Layer_1" xmlns="http://www.w3.org/2000/svg" xmlns:xlink="http://www.w3.org/1999/xlink" x="0px" y="0px"
	 width="44.848px" height="45.001px" viewBox="0 0 44.848 45.001" enable-background="new 0 0 44.848 45.001" xml:space="preserve">
<path fill="#CDAF70" d="M21.964,0h1.051c4.716,0,9.423,1.817,14.125,5.453c3.489,3.503,5.621,6.656,6.395,9.459
	c0.525,1.168,0.876,2.501,1.051,3.997c0.176,1.496,0.264,2.471,0.264,2.923v1.183v0.942c-0.352,3.227-1.059,5.934-2.125,8.124
	c-2.351,4.76-5.941,8.351-10.773,10.774c-3.46,1.431-6.57,2.146-9.329,2.146h-0.263c-5.577,0-10.679-2.044-15.307-6.132
	c-2.905-3.021-4.723-5.686-5.452-7.993C0.795,29.081,0.262,26.818,0,24.088v-2.803c0-4.584,1.905-9.241,5.715-13.971
	C10.708,2.438,16.124,0,21.964,0z M13.446,14.365v0.811c0.248,1.328,1.087,1.992,2.518,1.992c1.168,0,1.971-0.664,2.409-1.992
	v-0.132c0-1.372-0.847-2.175-2.541-2.408C14.795,12.636,14,13.212,13.446,14.365z M13.708,19.161v12.394
	c0.029,0.176,0.116,0.264,0.262,0.264h3.723c0.176,0,0.263-0.088,0.263-0.264V19.424l-0.263-0.525h-3.723
	C13.796,18.928,13.708,19.016,13.708,19.161z M24.898,20.234h-0.284v-1.336h-4.249v12.656c0.029,0.176,0.117,0.264,0.263,0.264
	h3.723c0.175,0,0.263-0.088,0.263-0.264v-6.787c0.219-1.869,0.978-2.804,2.277-2.804c1.504,0,2.256,0.935,2.256,2.804v6.787
	c0.028,0.176,0.117,0.264,0.263,0.264h4.007v-8.388c0-1.503-0.715-2.883-2.146-4.139c-1.081-0.438-1.745-0.656-1.993-0.656h-1.336
	C26.905,18.679,25.891,19.213,24.898,20.234z"/>
</svg>
