<?xml version="1.0" encoding="utf-8"?>
<!-- Generator: Adobe Illustrator 16.0.3, SVG Export Plug-In . SVG Version: 6.00 Build 0)  -->
<!DOCTYPE svg PUBLIC "-//W3C//DTD SVG 1.1//EN" "http://www.w3.org/Graphics/SVG/1.1/DTD/svg11.dtd">
<svg version="1.1" id="Layer_1" xmlns="http://www.w3.org/2000/svg" xmlns:xlink="http://www.w3.org/1999/xlink" x="0px" y="0px"
	 width="78.274px" height="76.785px" viewBox="0 0 78.274 76.785" enable-background="new 0 0 78.274 76.785" xml:space="preserve">
<g>
	<polygon fill="#CDAF70" points="39.501,11.371 43.539,0 45.121,11.956 51.432,1.676 50.492,13.701 58.807,4.959 55.389,16.529 
		65.334,9.701 59.584,20.309 70.732,15.701 62.906,24.881 74.77,22.688 65.203,30.038 77.262,30.362 66.377,35.568 78.107,38.39 
		66.377,41.216 77.262,46.416 65.203,46.739 74.77,54.091 62.906,51.904 70.732,61.083 59.584,56.471 65.334,67.075 55.389,60.25 
		58.807,71.82 50.492,63.074 51.432,75.102 45.121,64.821 43.539,76.785 39.501,65.414 35.466,76.785 33.888,64.821 27.574,75.102 
		28.513,63.074 20.199,71.82 23.621,60.25 13.672,67.075 19.42,56.471 8.273,61.083 16.103,51.904 4.235,54.091 13.802,46.739 
		1.744,46.416 12.627,41.216 0.898,38.39 12.627,35.568 1.744,30.362 13.802,30.038 4.235,22.688 16.103,24.881 8.273,15.701 
		19.42,20.309 13.672,9.701 23.621,16.529 20.199,4.959 28.513,13.701 27.574,1.676 33.888,11.956 35.466,0 	"/>
	<g>
		<g>
			<path fill="#FFFFFF" d="M12.603,35.138c-3.656-0.058-6.751,2.951-6.732,6.649c0.017,3.666,2.89,6.661,6.609,6.711
				c3.725,0.049,6.733-3.017,6.75-6.642C19.246,38.058,16.165,35.194,12.603,35.138z M12.51,45.435
				c-1.979-0.023-3.583-1.643-3.576-3.625c0.008-2.037,1.631-3.613,3.706-3.602c1.933,0.01,3.524,1.658,3.519,3.639
				C16.194,43.852,14.486,45.457,12.51,45.435z M12.62,38.725c-1.723-0.034-3.133,1.311-3.167,3.02
				c-0.035,1.71,1.323,3.135,3.024,3.172c1.703,0.037,3.136-1.334,3.164-3.027C15.669,40.157,14.334,38.759,12.62,38.725z
				 M63.127,35.146c-3.734-0.003-6.711,2.789-6.742,6.703c-0.031,3.662,2.992,6.644,6.672,6.646
				c3.541,0.014,6.635-2.749,6.682-6.662C69.783,38.26,66.949,35.148,63.127,35.146z M63.066,45.45
				c-2.148-0.019-3.631-1.684-3.617-3.754c0.014-1.902,1.699-3.516,3.635-3.494c2.027,0.023,3.615,1.648,3.594,3.683
				C66.662,43.822,64.996,45.469,63.066,45.45z M62.83,38.507c-1.846,0.105-3.197,1.7-3.092,3.611
				c0.076,1.435,1.572,3.142,3.182,2.95c2.271-0.148,3.617-1.469,3.482-3.416C66.271,39.763,64.723,38.396,62.83,38.507z
				 M77.504,35.552c-2.025-0.79-4.037-1.619-6.074-2.383c-2.344-0.878-4.756-1.513-7.268-1.652c-1.064-0.06-3.369,0.037-3.486,0.018
				c-2.311-0.381-4.645-0.389-6.975-0.451c-1.588-0.043-3.176-0.089-4.766-0.079c-0.471,0.004-1.035,0.064-1.387,0.328
				c-0.4,0.301-0.709,0.729-1.051,1.171c-0.068,0.063-0.133,0.135-0.193,0.219c-0.457,0.643-0.965,1.251-1.449,1.873
				c-0.135,0.174-0.342,0.524-0.549,0.871c-0.709,0.001-1.404,0.001-2.092,0c-2.207,0-4.417,0.013-6.625-0.008
				c-0.519-0.004-1.036-0.017-1.555-0.025c-0.336-0.982-0.644-1.899-0.987-2.797c-0.05-0.135-0.476-0.285-0.536-0.229
				c-0.161,0.154-0.336,0.443-0.294,0.633c0.131,0.605,0.395,1.185,0.539,1.791c0.057,0.239,0.148,0.431,0.271,0.586
				c-0.924-0.019-1.848-0.038-2.771-0.058c0.008-0.011,0.014-0.021,0.021-0.031c-1.418-0.148-3.629-0.242-4.948-0.752
				c-0.099-0.038-0.203-0.077-0.31-0.12c-0.165-0.334,0.088-0.95,0.088-0.95c1.717-2.779,5.396-3.231,3.919-3.271
				c-3.017-0.081-4.563,1.658-5.982,2.239c-3.091,1.265-6.315,0.063-14.115,1.354c-5.537,0.914-7.051,3.795-8.439,5.324
				c-0.492,0.542-0.619,1.214-0.357,1.894c0.167,0.428,0.419,0.846,0.71,1.204c1.049,1.296,2.537,1.436,4.053,1.46
				c0.299,0.005,0.4-0.164,0.329-0.455C5.113,42.8,4.96,42.346,4.911,41.883c-0.34-3.205,2.181-6.78,5.552-7.556
				c1.489-0.341,2.953-0.219,4.403,0.191c1.112,0.316,2.093,0.846,2.921,1.679c1.183,1.187,1.941,2.608,2.396,4.191
				c0.32,1.111,0.521,2.256,0.799,3.379c0.18,0.723,0.388,0.864,1.133,0.855c1.109-0.015,2.22-0.047,3.329-0.048
				c0.719-0.004,1.438,0.052,2.157,0.054c2.182,0.008,4.363,0.002,6.544,0.002c0.856,0,1.715,0.001,2.571,0.001
				c2.207-0.002,4.413-0.004,6.622-0.007c0.857-0.001,1.715-0.001,2.574-0.001c1.631,0,3.262,0.003,4.893-0.002
				c0.465-0.001,0.928-0.021,1.393-0.037c0.615-0.021,1.229-0.039,1.842-0.079c0.381-0.022,0.543-0.284,0.604-0.632
				c0.061-0.338,0.123-0.674,0.182-1.012c0.314-1.764,0.791-3.469,1.709-5.028c0.91-1.548,2.166-2.722,3.863-3.307
				c1.182-0.409,2.434-0.452,3.682-0.274c1.057,0.149,2.084,0.403,3.006,0.947c2.9,1.708,4.139,4.3,3.967,7.618
				c-0.008,0.114-0.002,0.229-0.002,0.412c0.262-0.119,0.457-0.182,0.623-0.29c0.777-0.506,1.557-1.013,2.318-1.543
				c1.203-0.832,2.406-1.667,3.58-2.541c0.254-0.188,0.457-0.525,0.547-0.834c0.123-0.433,0.152-0.903,0.156-1.357
				C78.279,36.138,78.025,35.755,77.504,35.552z M22.941,39.638c-0.266-0.018-0.448-0.183-0.452-0.476
				c-0.003-0.29,0.168-0.47,0.474-0.48c0.261-0.009,0.497,0.222,0.497,0.471C23.459,39.413,23.239,39.636,22.941,39.638z
				 M47.633,39.827c-0.273-0.007-0.619-0.553-0.613-0.963c0.008-0.476,0.174-0.645,0.637-0.646c0.453-0.001,0.615,0.177,0.613,0.67
				C48.27,39.293,47.9,39.838,47.633,39.827z M50.402,40.127c-0.094-0.1-0.242-0.19-0.266-0.304
				c-0.016-0.083,0.137-0.199,0.275-0.382c0.125,0.19,0.258,0.309,0.254,0.42C50.662,39.953,50.496,40.038,50.402,40.127z
				 M51.467,40.743c0,0.032-0.041,0.066-0.072,0.098c-0.342,0.135-0.455,0.081-0.461-0.251c-0.008-0.713-0.014-1.427,0.012-2.139
				c0.004-0.112,0.172-0.218,0.264-0.328c0.092,0.085,0.258,0.167,0.26,0.252C51.486,39.163,51.477,39.953,51.467,40.743z
				 M52.074,40.107c-0.115-0.021-0.207-0.168-0.307-0.259c0.096-0.097,0.184-0.244,0.297-0.27c0.08-0.019,0.197,0.133,0.363,0.258
				C52.266,39.968,52.154,40.121,52.074,40.107z"/>
		</g>
	</g>
</g>
</svg>
