<?xml version="1.0" encoding="utf-8"?>
<!-- Generator: Adobe Illustrator 16.0.3, SVG Export Plug-In . SVG Version: 6.00 Build 0)  -->
<!DOCTYPE svg PUBLIC "-//W3C//DTD SVG 1.1//EN" "http://www.w3.org/Graphics/SVG/1.1/DTD/svg11.dtd">
<svg version="1.1" id="Layer_1" xmlns="http://www.w3.org/2000/svg" xmlns:xlink="http://www.w3.org/1999/xlink" x="0px" y="0px"
	 width="77.209px" height="76.786px" viewBox="0 0 77.209 76.786" enable-background="new 0 0 77.209 76.786" xml:space="preserve">
<g>
	<g>
		<polygon fill="#CDAF70" points="38.604,11.372 42.641,0 44.223,11.957 50.534,1.675 49.594,13.701 57.909,4.959 54.491,16.53 
			64.436,9.701 58.686,20.31 69.834,15.703 62.006,24.881 73.872,22.688 64.303,30.038 76.364,30.363 65.481,35.569 77.209,38.392 
			65.481,41.217 76.364,46.417 64.303,46.741 73.872,54.093 62.006,51.906 69.834,61.083 58.686,56.472 64.436,67.077 54.491,60.25 
			57.909,71.821 49.594,63.075 50.534,75.103 44.223,64.823 42.641,76.786 38.604,65.415 34.569,76.786 32.991,64.823 
			26.677,75.103 27.615,63.075 19.301,71.821 22.722,60.25 12.774,67.077 18.522,56.472 7.375,61.083 15.206,51.906 3.337,54.093 
			12.905,46.741 0.846,46.417 11.729,41.217 0,38.392 11.729,35.569 0.846,30.363 12.905,30.038 3.337,22.688 15.206,24.881 
			7.375,15.703 18.522,20.31 12.774,9.701 22.722,16.53 19.301,4.959 27.615,13.701 26.677,1.675 32.991,11.957 34.569,0 		"/>
	</g>
	<path fill-rule="evenodd" clip-rule="evenodd" fill="#FFFFFF" d="M47.032,19.955c-0.379,0.692-0.736,1.342-1.092,1.993
		c-0.475,0.865-0.955,1.729-1.422,2.599c-0.037,0.071-0.025,0.216,0.023,0.279c0.486,0.628,0.98,1.25,1.484,1.864
		c0.059,0.071,0.178,0.123,0.271,0.128c0.777,0.033,1.555,0.052,2.334,0.084c0.135,0.006,0.203-0.034,0.268-0.159
		c0.768-1.486,1.543-2.97,2.318-4.454c0.018-0.034,0.041-0.067,0.078-0.127c0.488,0.648,0.896,1.316,1.219,2.032
		c0.471,1.044,0.744,2.135,0.504,3.272c-0.4,1.888-1.387,3.328-3.299,3.958c-0.404,0.134-0.852,0.176-1.281,0.204
		c-0.832,0.055-1.652,0.148-2.428,0.476c-0.68,0.286-1.238,0.722-1.67,1.323c-1.463,2.031-2.934,4.056-4.393,6.092
		c-1.661,2.313-3.312,4.632-4.963,6.95c-2.247,3.158-4.488,6.322-6.743,9.478c-0.201,0.28-0.454,0.538-0.727,0.751
		c-0.344,0.271-0.728,0.255-1.094-0.003c-0.711-0.502-1.428-0.996-2.137-1.501c-0.534-0.38-0.699-0.887-0.462-1.496
		c0.11-0.285,0.267-0.561,0.444-0.811c1.493-2.114,2.998-4.219,4.497-6.326c2.528-3.558,5.048-7.118,7.584-10.667
		c1.26-1.765,2.552-3.506,3.821-5.266c0.195-0.27,0.373-0.557,0.521-0.855c0.377-0.764,0.373-1.544,0.07-2.337
		c-0.174-0.452-0.334-0.912-0.454-1.381c-0.467-1.808-0.006-3.318,1.413-4.566c1.223-1.076,2.641-1.539,4.236-1.549
		C46.303,19.938,46.651,19.95,47.032,19.955z"/>
	<path fill-rule="evenodd" clip-rule="evenodd" fill="#FFFFFF" d="M58,50.937c-0.451-0.454-0.896-0.913-1.344-1.37
		c-1.377-1.404-2.754-2.808-4.131-4.211c-1-1.021-2.002-2.038-3.002-3.06c-0.172-0.177-0.375-0.261-0.621-0.284
		c-0.27-0.025-0.545-0.055-0.797-0.143c-0.664-0.229-0.91-0.718-0.852-1.376c0.027-0.313-0.037-0.565-0.266-0.789
		c-0.385-0.376-0.756-0.765-1.133-1.147c-0.207-0.21-0.322-0.21-0.539-0.001c-0.268,0.262-0.535,0.526-0.803,0.79
		c-0.162,0.158-0.326,0.317-0.486,0.475C44,39.8,43.987,39.791,43.977,39.781c-0.971-0.99-1.941-1.98-2.914-2.97
		c-0.639-0.653-5.488-5.6-6.218-6.344c-1.036-1.058-2.074-2.114-3.109-3.174c-0.24-0.246-0.494-0.483-0.688-0.764
		c-0.3-0.431-0.548-0.899-0.831-1.341c-0.093-0.147-0.21-0.288-0.345-0.396c-0.79-0.633-1.589-1.256-2.384-1.881
		c-0.073-0.057-0.146-0.112-0.227-0.172c-0.395,0.388-0.781,0.767-1.172,1.15c0.021,0.029,0.034,0.051,0.05,0.071
		c0.684,0.906,1.367,1.814,2.054,2.721c0.039,0.052,0.098,0.093,0.154,0.129c0.408,0.264,0.819,0.521,1.227,0.785
		c0.158,0.103,0.326,0.194,0.457,0.326c0.748,0.749,1.483,1.511,2.227,2.266c1.17,1.188,3.516,3.562,3.516,3.562l3.168,3.253
		c0,0,2.603,2.655,3.902,3.98c-0.061,0.06-0.104,0.103-0.148,0.146c-0.395,0.388-0.791,0.773-1.182,1.163
		c-0.174,0.171-0.168,0.309,0.004,0.482c0.369,0.377,0.748,0.743,1.104,1.131c0.24,0.26,0.508,0.362,0.863,0.326
		c0.596-0.061,1.045,0.225,1.287,0.768c0.127,0.288,0.162,0.592,0.164,0.901c0.002,0.262,0.105,0.471,0.287,0.653
		c0.471,0.476,0.936,0.953,1.402,1.429c0.471,0.481,0.951,0.954,1.412,1.443c0.451,0.478,0.953,0.901,1.377,1.403
		c0.006,0.004,0.008,0.007,0.012,0.01c0.266,0.271,0.529,0.541,0.795,0.813c1.191,1.213,2.375,2.433,3.576,3.636
		c0.572,0.574,1.285,0.771,2.074,0.589c1.26-0.294,2.133-1.075,2.633-2.248C58.926,52.639,58.776,51.722,58,50.937z"/>
</g>
</svg>
