<?xml version="1.0" encoding="utf-8"?>
<!-- Generator: Adobe Illustrator 16.0.3, SVG Export Plug-In . SVG Version: 6.00 Build 0)  -->
<!DOCTYPE svg PUBLIC "-//W3C//DTD SVG 1.1//EN" "http://www.w3.org/Graphics/SVG/1.1/DTD/svg11.dtd">
<svg version="1.1" id="Layer_1" xmlns="http://www.w3.org/2000/svg" xmlns:xlink="http://www.w3.org/1999/xlink" x="0px" y="0px"
	 width="77.209px" height="76.786px" viewBox="0 0 77.209 76.786" enable-background="new 0 0 77.209 76.786" xml:space="preserve">
<g>
	<g>
		<polygon fill="#CDAF70" points="38.604,11.372 42.641,0 44.224,11.957 50.533,1.675 49.595,13.701 57.908,4.959 54.49,16.53 
			64.436,9.701 58.686,20.31 69.834,15.703 62.006,24.881 73.871,22.688 64.303,30.038 76.363,30.363 65.48,35.569 77.209,38.392 
			65.48,41.217 76.363,46.417 64.303,46.741 73.871,54.093 62.006,51.906 69.834,61.083 58.686,56.472 64.436,67.077 54.49,60.25 
			57.908,71.821 49.595,63.075 50.533,75.103 44.224,64.823 42.641,76.786 38.604,65.415 34.569,76.786 32.991,64.823 
			26.677,75.103 27.615,63.075 19.301,71.821 22.722,60.25 12.774,67.077 18.522,56.472 7.375,61.083 15.206,51.906 3.337,54.093 
			12.905,46.741 0.846,46.417 11.729,41.217 0,38.392 11.729,35.569 0.846,30.363 12.905,30.038 3.337,22.688 15.206,24.881 
			7.375,15.703 18.522,20.31 12.774,9.701 22.722,16.53 19.301,4.959 27.615,13.701 26.677,1.675 32.991,11.957 34.569,0 		"/>
	</g>
	<path fill="#FFFFFF" d="M61.39,37.184c0.454-0.47,0.44-1.216-0.028-1.669l-2.754-2.658c-0.304-0.291-0.742-0.397-1.148-0.281
		l-5.725,1.651c-0.01,0.003-0.019,0.006-0.029,0.01l-11.274,3.258l-1.721-1.76c-0.221-0.228-0.525-0.354-0.844-0.354H32.9v-2.559
		h2.556c0.652,0,1.18-0.529,1.18-1.18c0-0.653-0.528-1.181-1.18-1.181h-7.771c-0.652,0-1.181,0.527-1.181,1.181
		c0,0.65,0.529,1.18,1.181,1.18h2.854v2.559h-5.216v-0.983c0-0.495-0.306-0.938-0.772-1.109l-7.475-2.753
		c-0.567-0.21-1.201,0.045-1.466,0.584l-1.771,3.592c-0.148,0.298-0.162,0.644-0.042,0.95c0.121,0.31,0.363,0.552,0.675,0.672
		l8.491,3.301v6.568c0,0.653,0.529,1.181,1.181,1.181h18.888c0.351,0,0.682-0.156,0.905-0.425l8.788-10.559l4.734-1.366l2.264,2.181
		C60.192,37.668,60.938,37.652,61.39,37.184z M22.962,37.098l-6.436-2.499l0.728-1.481l5.708,2.104V37.098z M42.475,45.021H25.323
		v-7.28h12.048l1.865,1.907c0.304,0.313,0.756,0.432,1.171,0.311l8.273-2.392L42.475,45.021z M61.328,39.382
		c0,0-4.035,8.983,0,8.983C65.361,48.365,62.803,42.662,61.328,39.382z"/>
</g>
</svg>
